<?xml version="1.0" standalone="no"?><!DOCTYPE svg PUBLIC "-//W3C//DTD SVG 1.1//EN" "http://www.w3.org/Graphics/SVG/1.1/DTD/svg11.dtd"><svg t="1739708114847" class="icon" viewBox="0 0 1024 1024" version="1.1" xmlns="http://www.w3.org/2000/svg" p-id="9002" xmlns:xlink="http://www.w3.org/1999/xlink" width="64" height="64"><path d="M41.278637 884.830357l941.441703 0 0 53.211922-941.441703 0 0-53.211922Z" p-id="9003"></path><path d="M37.185412 641.107473 155.206386 567.258535 374.193913 674.705686 614.670869 322.688353 860.264357 505.860163 978.627115 500.743632 978.627115 533.48943 845.93807 539.629267 623.880625 375.900276 385.450281 721.777771 158.276305 609.214089 37.185412 682.892135Z" p-id="9004"></path><path d="M866.787934 455.443913l54.874795-2.372024L921.662729 269.660626c0-16.020882-12.986779-29.007661-29.006637-29.007661l-85.249593 0c-16.019859 0-29.007661 12.986779-29.007661 29.007661l0 119.860878L866.787934 455.443913z" p-id="9005"></path><path d="M833.412802 592.45745 778.399861 551.894615 778.399861 835.711659 921.662729 835.711659 921.662729 588.373435Z" p-id="9006"></path><path d="M604.302731 259.674181l86.092797 64.210417L690.395528 93.65196c0-16.020882-12.986779-29.007661-29.006637-29.007661l-85.249593 0c-16.019859 0-29.007661 12.986779-29.007661 29.007661l0 249.710248L604.302731 259.674181z" p-id="9007"></path><path d="M628.099716 441.074647 547.13266 558.52871 547.13266 835.711659 690.395528 835.711659 690.395528 487.006769Z" p-id="9008"></path><path d="M392.568399 782.745331 317.912072 745.753835 317.912072 835.711659 461.174939 835.711659 461.174939 683.222663Z" p-id="9009"></path><path d="M360.774275 616.158245l100.400664-146.969283 0-19.426445c0-16.020882-12.986779-29.007661-29.006637-29.007661l-85.249593 0c-16.020882 0-29.007661 12.986779-29.007661 29.007661L317.911048 595.127256 360.774275 616.158245z" p-id="9010"></path><path d="M150.328285 512.902556l80.602759 39.547715 0-206.042703c0-16.020882-12.986779-29.007661-29.006637-29.007661l-85.248569 0c-16.020882 0-29.007661 12.986779-29.007661 29.007661l0 205.702965L150.328285 512.902556z" p-id="9011"></path><path d="M156.722926 665.884786l-69.054749 42.016953 0 122.844839c0 1.693572 0.153496 3.350304 0.431835 4.966105l142.398174 0c0.278339-1.614777 0.431835-3.27151 0.431835-4.966105L230.930021 702.655248 156.722926 665.884786z" p-id="9012"></path></svg>