<?xml version="1.0" standalone="no"?><!DOCTYPE svg PUBLIC "-//W3C//DTD SVG 1.1//EN" "http://www.w3.org/Graphics/SVG/1.1/DTD/svg11.dtd"><svg t="1739708382924" class="icon" viewBox="0 0 1175 1024" version="1.1" xmlns="http://www.w3.org/2000/svg" p-id="12674" xmlns:xlink="http://www.w3.org/1999/xlink" width="73.4375" height="64"><path d="M488.03256 151.085341v662.84095h26.059842l28.465168 70.011707h23.693104v140.062002H357.759077V883.937998h23.667379l28.452305-70.011707h26.059841V393.81746h-104.265092V288.780605h104.265092V151.098204l-0.012862-19.718528v-52.608466h-26.046979v-52.544153h26.059841v-26.227057h52.093958v26.227057h26.059842v52.544153h-26.059842V151.085341zM189.5792 130.466424s64.995252 181.119759 64.017686 180.167918C130.513656 389.572767 18.968272 288.111745 18.968272 288.111745L136.276148 130.427836zM787.772191 130.466424l117.307876 157.709634s-111.545384 101.461022-234.628615 22.522598c-1.016154 0.95184 64.004824-180.167919 64.004824-180.167919z" p-id="12675"></path><path d="M488.212638 154.571134L801.072229 116.163095c-163.446401-18.342218-260.418339 0.231529-312.859591 18.753825zM435.951465 154.571134L123.091874 116.163095c163.446401-18.342218 260.418339 0.231529 312.859591 18.753825z" p-id="12676"></path></svg>