<?xml version="1.0" standalone="no"?><!DOCTYPE svg PUBLIC "-//W3C//DTD SVG 1.1//EN" "http://www.w3.org/Graphics/SVG/1.1/DTD/svg11.dtd"><svg t="1739708308663" class="icon" viewBox="0 0 1024 1024" version="1.1" xmlns="http://www.w3.org/2000/svg" p-id="11449" xmlns:xlink="http://www.w3.org/1999/xlink" width="64" height="64"><path d="M422.4 102.4v204.8L243.2 416 64 313.6V102.4L243.2 0l179.2 102.4zM256 364.8l128-76.8V140.8L256 211.2v153.6zM102.4 288l128 76.8V217.6l-128-76.8v147.2zM243.2 192l128-76.8-128-76.8-128 76.8 128 76.8z m633.6 320h19.2l-44.8 64-44.8-64h19.2c0-172.8-140.8-313.6-307.2-313.6v-44.8c192 0 358.4 160 358.4 358.4zM761.6 1024c-108.8 0-198.4-89.6-198.4-204.8s89.6-204.8 198.4-204.8c51.2 0 102.4 19.2 140.8 57.6 38.4 38.4 57.6 89.6 57.6 147.2 0 57.6-19.2 108.8-57.6 147.2-38.4 38.4-89.6 57.6-140.8 57.6z m-57.6-192c0-6.4-6.4-6.4-6.4-6.4h-44.8-6.4v96c0 6.4 6.4 6.4 6.4 6.4h38.4c6.4 0 6.4-6.4 6.4-6.4V832h6.4z m89.6-128c0-6.4-6.4-6.4-6.4-6.4h-38.4c-6.4 0-6.4 6.4-6.4 6.4v217.6c0 6.4 6.4 6.4 6.4 6.4h44.8V704z m76.8 57.6H832c-6.4 0-6.4 6.4-6.4 6.4v153.6c0 6.4 6.4 6.4 6.4 6.4h44.8V768s0-6.4-6.4-6.4c6.4 0 0 0 0 0zM153.6 512H128l44.8-64 44.8 64h-19.2c0 179.2 140.8 320 307.2 320v51.2c-192 0-352-166.4-352-371.2z" p-id="11450"></path></svg>