<?xml version="1.0" standalone="no"?><!DOCTYPE svg PUBLIC "-//W3C//DTD SVG 1.1//EN" "http://www.w3.org/Graphics/SVG/1.1/DTD/svg11.dtd"><svg t="1739708007606" class="icon" viewBox="0 0 1024 1024" version="1.1" xmlns="http://www.w3.org/2000/svg" p-id="7883" width="64" height="64" xmlns:xlink="http://www.w3.org/1999/xlink"><path d="M266.24 119.466667h290.133333c49.493333 0 87.04 34.133333 87.04 83.626666v133.12h-8.533333c-61.44 0-116.053333 49.493333-116.053333 112.64v126.293334h-34.133334c-11.946667 0-20.48 8.533333-20.48 20.48v46.08c0 11.946667 8.533333 20.48 20.48 20.48h34.133334v182.613333H174.08V203.093333C174.08 153.6 216.746667 119.466667 266.24 119.466667z m197.973333 199.68c0 10.24 8.533333 18.773333 18.773334 18.773333h35.84c10.24 0 18.773333-8.533333 18.773333-18.773333v-52.906667c0-10.24-8.533333-18.773333-18.773333-18.773333h-35.84c-10.24 0-18.773333 8.533333-18.773334 18.773333v52.906667z m-184.32 0c0 10.24 8.533333 18.773333 18.773334 18.773333h35.84c10.24 0 18.773333-8.533333 18.773333-18.773333v-52.906667c0-10.24-8.533333-18.773333-18.773333-18.773333h-35.84c-10.24 0-18.773333 8.533333-18.773334 18.773333v52.906667z m0 160.426666c0 10.24 8.533333 18.773333 18.773334 18.773334h35.84c10.24 0 18.773333-8.533333 18.773333-18.773334V426.666667c0-10.24-8.533333-18.773333-18.773333-18.773334h-35.84c-10.24 0-18.773333 8.533333-18.773334 18.773334v52.906666z" fill="#FFFFFF" p-id="7884"></path><path d="M634.88 375.466667H768c40.96 0 75.093333 32.426667 75.093333 73.386666v433.493334h75.093334c10.24 0 18.773333 8.533333 18.773333 18.773333s-8.533333 18.773333-18.773333 18.773333H104.106667c-10.24 0-18.773333-8.533333-18.773334-18.773333s8.533333-18.773333 18.773334-18.773333h450.56V448.853333c-1.706667-42.666667 37.546667-73.386667 80.213333-73.386666z m29.013333 177.493333c0 10.24 8.533333 18.773333 18.773334 18.773333h35.84c10.24 0 18.773333-8.533333 18.773333-18.773333v-52.906667c0-10.24-8.533333-18.773333-18.773333-18.773333H682.666667c-10.24 0-18.773333 8.533333-18.773334 18.773333v52.906667z m0 165.546667c0 10.24 8.533333 18.773333 18.773334 18.773333h35.84c10.24 0 18.773333-8.533333 18.773333-18.773333V665.6c0-10.24-8.533333-18.773333-18.773333-18.773333H682.666667c-10.24 0-18.773333 8.533333-18.773334 18.773333v52.906667z" p-id="7885"></path><path d="M266.24 119.466667h290.133333c49.493333 0 87.04 34.133333 87.04 83.626666v133.12h-8.533333c-61.44 0-116.053333 49.493333-116.053333 112.64v126.293334h-34.133334c-11.946667 0-20.48 8.533333-20.48 20.48v46.08c0 11.946667 8.533333 20.48 20.48 20.48h34.133334v182.613333H174.08V203.093333C174.08 153.6 216.746667 119.466667 266.24 119.466667z m197.973333 199.68c0 10.24 8.533333 18.773333 18.773334 18.773333h35.84c10.24 0 18.773333-8.533333 18.773333-18.773333v-52.906667c0-10.24-8.533333-18.773333-18.773333-18.773333h-35.84c-10.24 0-18.773333 8.533333-18.773334 18.773333v52.906667z m-184.32 0c0 10.24 8.533333 18.773333 18.773334 18.773333h35.84c10.24 0 18.773333-8.533333 18.773333-18.773333v-52.906667c0-10.24-8.533333-18.773333-18.773333-18.773333h-35.84c-10.24 0-18.773333 8.533333-18.773334 18.773333v52.906667z m0 160.426666c0 10.24 8.533333 18.773333 18.773334 18.773334h35.84c10.24 0 18.773333-8.533333 18.773333-18.773334V426.666667c0-10.24-8.533333-18.773333-18.773333-18.773334h-35.84c-10.24 0-18.773333 8.533333-18.773334 18.773334v52.906666z" p-id="7886"></path></svg>